<svg width="18" height="23" viewBox="0 0 18 23" fill="none" xmlns="http://www.w3.org/2000/svg">
<path d="M3.83433 11.5812L1.68012 14.4534C1.05941 15.2811 1.11618 16.4334 1.81523 17.196L5.88257 21.6332C6.28975 22.0773 6.86374 22.3302 7.46634 22.3302C8.6339 22.3302 10.5434 22.3302 12.4336 22.3302C15.0134 22.3302 16.7332 20.1804 16.7332 18.0306C16.7332 18.0306 16.7332 10.6599 16.7332 8.81714C16.7332 6.3602 13.5085 6.36012 13.5085 8.81706M3.83433 11.5812L3.83434 2.44445C3.83434 1.55397 4.55621 0.832092 5.4467 0.832092C6.33718 0.832092 7.05906 1.55288 7.05906 2.44337C7.05906 3.72325 7.05906 5.49892 7.05906 6.74413M3.83433 11.5812L3.83434 14.8059M13.5085 9.43129C13.5085 9.43129 13.5085 9.2968 13.5085 8.81706M13.5085 8.81706C13.5085 8.57719 13.5085 7.8285 13.5085 7.58863C13.5085 5.1317 10.2838 5.1317 10.2838 7.58863M10.2838 9.43132C10.2838 9.43132 10.2838 8.54812 10.2838 7.58863M10.2838 7.58863C10.2838 7.34876 10.2838 6.74413 10.2838 6.74413C10.2838 4.28721 7.05906 4.28721 7.05906 6.74413M7.05906 9.43145C7.05906 9.43145 7.05906 7.9435 7.05906 6.74413" stroke="#FFCB01" stroke-linecap="round" stroke-linejoin="round"/>
</svg>
