<svg width="142" height="31" viewBox="0 0 142 31" fill="none" xmlns="http://www.w3.org/2000/svg">
<path d="M44.7805 30.5161L32.7478 0.516092H43.3664L55.399 30.5161H44.7805Z" fill="#FFC401"/>
<path d="M28.6061 30.5161L16.5734 0.516092H27.192L39.2247 30.5161H28.6061Z" fill="#FFC401"/>
<path d="M12.4317 30.5161L0.399048 0.516092H11.0176L23.0503 30.5161H12.4317Z" fill="#FFC401"/>
<path d="M52.399 0.516052L63.5295 0.516052L69.3051 17.3036L75.0861 0.516052L86.0471 0.516052L73.9823 30.6297H64.4666L52.399 0.516052Z" fill="#0C0C0C"/>
<path fill-rule="evenodd" clip-rule="evenodd" d="M91.8282 0.516052L101.683 0.516052L114.215 30.6297H103.426L101.855 26.6162H91.4457L89.9157 30.6297H79.2935L91.8282 0.516052ZM99.3905 19.5232L96.6721 10.0237L93.9537 19.5232H99.3905Z" fill="#0C0C0C"/>
<path d="M128.782 8.77657L116.944 23.5752V30.6297H141.333V22.3692H129.495L141.333 7.57059V0.516052L117.392 0.516052V8.77657H128.782Z" fill="#0C0C0C"/>
</svg>
